/* XPM */
static char *_e7708ea96dd4e1ada43d49672c2ba3f[] = {
/* columns rows colors chars-per-pixel */
"16 16 185 2 ",
"   c #4A4A50",
".  c #59595C",
"X  c #6B675E",
"o  c #66676C",
"O  c #757375",
"+  c #7A787A",
"@  c #79797D",
"#  c #D47726",
"$  c #CB6B3A",
"%  c #E17F2B",
"&  c #BF6E5D",
"*  c #C35253",
"=  c #C55753",
"-  c #CF7150",
";  c #CF7877",
":  c #E5B11F",
">  c #FFB71E",
",  c #C08128",
"<  c #DF812D",
"1  c #C9992D",
"2  c #DF903F",
"3  c #E89E2D",
"4  c #EC853F",
"5  c #DCA625",
"6  c #C8A035",
"7  c #E7B22D",
"8  c #F5B526",
"9  c #FFBC24",
"0  c #F2A435",
"q  c #FDC92D",
"w  c #FFCB2D",
"e  c #E1C134",
"r  c #F9C23A",
"t  c #FFD132",
"y  c #FFD033",
"u  c #FFD73D",
"i  c #9D8B5B",
"p  c #BF9744",
"a  c #B39B51",
"s  c #B9A655",
"d  c #B4A05B",
"f  c #9D9379",
"g  c #A79775",
"h  c #C19E40",
"j  c #DD9C41",
"k  c #E39E4C",
"l  c #CAAC43",
"z  c #C9AD45",
"x  c #CDAC4E",
"c  c #DAB04B",
"v  c #D8BB56",
"b  c #EBC044",
"n  c #FFDD43",
"m  c #FFD04A",
"M  c #F6C651",
"N  c #F8CF55",
"B  c #FFE240",
"V  c #FBDA71",
"C  c #FFE463",
"Z  c #FFF27C",
"A  c #7D7C83",
"S  c #689FD1",
"D  c #88878C",
"F  c #88898B",
"G  c #8B8A8C",
"H  c #8B8C8D",
"J  c #999082",
"K  c #8C8C91",
"L  c #908E91",
"P  c #949399",
"I  c #979798",
"U  c #AEA785",
"Y  c #BAAF8E",
"T  c #A4A095",
"R  c #ACA99E",
"E  c #B5AD99",
"W  c #BFB090",
"Q  c #B8B29D",
"!  c #9E9EA1",
"~  c #9F9FAD",
"^  c #9FA1A5",
"/  c #A4A6A7",
"(  c #A3A5AA",
")  c #A1A2AD",
"_  c #A7A9AB",
"`  c #A8A9AB",
"'  c #ABA9B2",
"]  c #AFAEB2",
"[  c #B1AFB5",
"{  c #B0AFB8",
"}  c #B1B2B4",
"|  c #B9B8B9",
" . c #E6808E",
".. c #FA8890",
"X. c #C3BA98",
"o. c #C7BA9E",
"O. c #C4B9A4",
"+. c #C8C68A",
"@. c #DCC485",
"#. c #DEC881",
"$. c #DCCC86",
"%. c #D0CB8C",
"&. c #D0D398",
"*. c #F6EA8C",
"=. c #FFEC99",
"-. c #FFF395",
";. c #FFF499",
":. c #CFC6A7",
">. c #C2C1AB",
",. c #DACBA5",
"<. c #D1D5A0",
"1. c #D1CABE",
"2. c #C2D0BD",
"3. c #DAD4BE",
"4. c #E3D9BC",
"5. c #E7DFBF",
"6. c #F9E9A2",
"7. c #FFF3AA",
"8. c #82ACD4",
"9. c #80B0DA",
"0. c #81B0DA",
"q. c #B6B5C1",
"w. c #BDBEC0",
"e. c #BEBEC0",
"r. c #BEBBC6",
"t. c #90B3E0",
"y. c #C2BFC5",
"u. c #C0BFCE",
"i. c #BFC0C6",
"p. c #BEC1C6",
"a. c #B7D2D9",
"s. c #9BCEEA",
"d. c #A3D5F6",
"f. c #BCD4F2",
"g. c #C0C2C4",
"h. c #C8C2C1",
"j. c #C3C0CB",
"k. c #C2C5C8",
"l. c #C6C4CA",
"z. c #C8C9CB",
"x. c #CDCBCF",
"c. c #D8D5C4",
"v. c #DED4C6",
"b. c #CAC6D2",
"n. c #C9CBD1",
"m. c #CECAD2",
"M. c #CECFD0",
"N. c #CDD0D6",
"B. c #CFD1D6",
"V. c #D2D0D3",
"C. c #D7D3D7",
"Z. c #D4D4D5",
"A. c #D3D5DA",
"S. c #D3D6DC",
"D. c #DCD7DF",
"F. c #D5D8DB",
"G. c #D8D9DC",
"H. c #D9DADD",
"J. c gray87",
"K. c #DFDFDF",
"L. c #E4DDC0",
"P. c #E7E1CD",
"I. c #F6EDC5",
"U. c #EAE4D3",
"Y. c #F6F0DD",
"T. c #D8DBE1",
"R. c #DFDAE3",
"E. c #DEDBEB",
"W. c #C9E3E2",
"Q. c #C8E6EE",
"!. c #E1E3E4",
"~. c #E3E3E4",
"^. c #E4E5E6",
"/. c #EFE8E7",
"(. c #E6E1EC",
"). c #E6E3ED",
"_. c #E6E9F0",
"`. c #EFEEF7",
"'. c #F1EDF3",
"]. c #EFF1F9",
"[. c #F2F3F7",
"{. c #F6F3F6",
"}. c #F9F9FF",
"|. c gray100",
" X c None",
/* pixels */
" X X X X X XK.H.H.K. X X X X X X",
" X X X XZ.~.[.L.:.N.| z. X X X X",
" X X XV.{.|.|.P.3._.T.g.}  X X X",
" X Xx.'.`.Y.7.;.-.=.5.S.k.`  X X",
" Xl.(.(.I.*.&.#.$.%.N @.B.r.^  X",
" X1.v.U.Z <.d.8.0.s.x 8 X.c.R  X",
"i.O.o.6.C +.Q.S 0.W.h > p X.Q ( ",
"] r.C.V m v a.t.f.2.5 9 1 n.F.` ",
"! ' h.M r 2 ; .. .& 3 w 6 S.!./ ",
"F P { c 4 * $ % < - = 0 s ].^.H ",
" X@ ) g # j 7 w y b k , >.|.M. X",
" X. K ~ i : y u n B e U }.|.I  X",
" X Xo T Y J a l z d E 4.|.e. X X",
" X X XX f q.u.j.b.E./.,.|  X X X",
" X X X X  D [ m.R.D.y.A  X X X X",
" X X X X X XO G L +  X X X X X X"
};
