/* XPM */
static char *_41d4d03c7834c509827ff85d618bdfb[] = {
/* columns rows colors chars-per-pixel */
"64 64 233 2 ",
"   c #1B1507",
".  c #191514",
"X  c #271A03",
"o  c #211C18",
"O  c #32270D",
"+  c #2D2A2C",
"@  c #292526",
"#  c #373537",
"$  c #312D2E",
"%  c #231F20",
"&  c #4A3905",
"*  c #443C37",
"=  c #6D530A",
"-  c #655327",
";  c #304B6F",
":  c #48484A",
">  c #525254",
",  c #59595B",
"<  c #4E4E52",
"1  c #5E5E61",
"2  c #465677",
"3  c #6B6B6D",
"4  c #636366",
"5  c #727275",
"6  c #7A7A7D",
"7  c #76767A",
"8  c #706E71",
"9  c #645B61",
"0  c #323A4E",
"q  c #B11921",
"w  c #B73636",
"e  c #B32B2F",
"r  c #A62824",
"t  c #CF3033",
"y  c #EC3137",
"u  c #C21B23",
"i  c #A0451E",
"p  c #997518",
"a  c #936915",
"s  c #A77B14",
"d  c #9A4F29",
"f  c #A84831",
"g  c #95732F",
"h  c #AC712D",
"j  c #885412",
"k  c #BC4E47",
"l  c #8D7B44",
"z  c #847E6F",
"x  c #CF5248",
"c  c #ED5350",
"v  c #C96E54",
"b  c #EF6F6D",
"n  c #E36461",
"m  c #DD4342",
"M  c #AD831C",
"N  c #B18E2D",
"B  c #9E8935",
"V  c #CC9519",
"C  c #E9AA1C",
"Z  c #CC9A29",
"A  c #D8A828",
"S  c #D0AD34",
"D  c #E8B427",
"F  c #F2B226",
"G  c #F2B32A",
"H  c #F5BB2C",
"J  c #F9B929",
"K  c #F2B632",
"L  c #F4BB34",
"P  c #F4BD3C",
"I  c #F9BE37",
"U  c #EAAF28",
"Y  c #DBA31E",
"T  c #FAC12E",
"R  c #F7C132",
"E  c #F9C534",
"W  c #FBCC3B",
"Q  c #FAC839",
"!  c #FED33E",
"~  c #EFC83A",
"^  c #DEC03E",
"/  c #9A875C",
"(  c #A99056",
")  c #988E6C",
"_  c #A2946E",
"`  c #B5A871",
"'  c #BFA35A",
"]  c #CF9158",
"[  c #CEA84D",
"{  c #EFB74A",
"}  c #D68A68",
"|  c #CEAA70",
" . c #E7B471",
".. c #EC9165",
"X. c #F5C244",
"o. c #F7C84A",
"O. c #FED443",
"+. c #FFD946",
"@. c #FFDB48",
"#. c #FBD346",
"$. c #F7CC55",
"%. c #FAD25A",
"&. c #EBCA4F",
"*. c #FFE34B",
"=. c #FFED4D",
"-. c #FBDA67",
";. c #F1D172",
":. c #FEE16C",
">. c #FEE474",
",. c #FFE976",
"<. c #FFEB7B",
"1. c #FEE579",
"2. c #FFF17A",
"3. c #306499",
"4. c #1153A3",
"5. c #3567B1",
"6. c #2060A0",
"7. c #7D7E82",
"8. c #7A7C88",
"9. c #4877B9",
"0. c #557BB3",
"q. c #557397",
"w. c #3382B8",
"e. c #548DB6",
"r. c #6F8CB0",
"t. c #558FC4",
"y. c #7199CB",
"u. c #5AA2D0",
"i. c #65ACD6",
"p. c #75C7EA",
"a. c #3A83C3",
"s. c #828386",
"d. c #8A8A8E",
"f. c #86868A",
"g. c #8D8D92",
"h. c #929295",
"j. c #95959A",
"k. c #9A9A9E",
"l. c #97989B",
"z. c #919092",
"x. c #A99784",
"c. c #ACA895",
"v. c #9D9DA1",
"b. c #979DA1",
"n. c #8094BE",
"m. c #A19FA5",
"M. c #9FA0A3",
"N. c #9CA6B7",
"B. c #A2A2A5",
"V. c #A5A4A9",
"C. c #AAAAAD",
"Z. c #A8A7AB",
"A. c #ADACB2",
"S. c #AAAAB7",
"D. c #B1AFB5",
"F. c #B2B2B5",
"G. c #B5B3BA",
"H. c #B9B6BD",
"J. c #BABBBE",
"K. c #B9B8B8",
"L. c #B5B3A9",
"P. c #D7AE84",
"I. c #E7B68D",
"U. c #C5BDAF",
"Y. c #DF8D8C",
"T. c #9FD1A3",
"R. c #D4C58F",
"E. c #EBD590",
"W. c #FEEA88",
"Q. c #FEEC94",
"!. c #FFF18E",
"~. c #CAC5BA",
"^. c #D4CDB4",
"/. c #FFF2A5",
"(. c #F6EDB1",
"). c #DCE0B4",
"_. c #90B7D7",
"`. c #BDBCC2",
"'. c #B8B6C1",
"]. c #A4BADE",
"[. c #C1BEC5",
"{. c #8CC3D5",
"}. c #BEC1C3",
"|. c #8ED1ED",
" X c #ADCEE6",
".X c #B3E4F2",
"XX c #9DE0F0",
"oX c #C2C2C5",
"OX c #C5C4C9",
"+X c #C9C6CD",
"@X c #C7C9CB",
"#X c #CACBCD",
"$X c #CAC8C4",
"%X c #DAD6CA",
"&X c #CDCCD2",
"*X c #C9C7D1",
"=X c #D2CED6",
"-X c #CDD0D3",
";X c #D2D3D5",
":X c #D5D5D9",
">X c #DAD5DD",
",X c #D7D8DA",
"<X c #DADBDD",
"1X c #D9D8D4",
"2X c #D6CECE",
"3X c #D2EACE",
"4X c #FCF6C8",
"5X c #FDF9D7",
"6X c #EEE8CF",
"7X c #DEDAE2",
"8X c #DAD6E2",
"9X c #C5DAEE",
"0X c #E1DCE4",
"qX c #E4DFE8",
"wX c #DDE1E2",
"eX c #D9F4F9",
"rX c #CFE9F3",
"tX c #E3E2E5",
"yX c #E6E4E9",
"uX c #E9E6EB",
"iX c #ECEBED",
"pX c #E8E8E9",
"aX c #EEECF1",
"sX c #E7ECF6",
"dX c #F1EEF2",
"fX c #E9F4F8",
"gX c #F4F3F4",
"hX c #F8F6F9",
"jX c #FDFDFD",
"kX c #F6F8FA",
"lX c #F4F6E6",
"zX c #E6DECA",
"xX c None",
/* pixels */
"xXxXxXxXxXxXxXxXxXxXxXxXxXxXxXxXxXxXxXxXxXxXxXxXxXxXxXxXxXxXxXxXxXxXxXxXxXxXxXxXxXxXxXxXxXxXxXxXxXxXxXxXxXxXxXxXxXxXxXxXxXxXxXxX",
"xXxXxXxXxXxXxXxXxXxXxXxXxXxXxXxXxXxXxXxXxXxXxXxXxXxXjXjXjXjXjXjXjXjXjXjXjXjXxXxXxXxXxXxXxXxXxXxXxXxXxXxXxXxXxXxXxXxXxXxXxXxXxXxX",
"xXxXxXxXxXxXxXxXxXxXxXxXxXxXxXxXxXxXxXxXxXxXjXjXjXpX-XK.B.j.z.z.h.j.B.F.#XtXhXjXjXjXxXxXxXxXxXxXxXxXxXxXxXxXxXxXxXxXxXxXxXxXxXxX",
"xXxXxXxXxXxXxXxXxXxXxXxXxXxXxXxXxXxXxXxXjXgX@Xl.6 7 s.h.Z.L.F.F.A.A.M.z.7.7 6 l.}.aXjXjXxXxXxXxXxXxXxXxXxXxXxXxXxXxXxXxXxXxXxXxX",
"xXxXxXxXxXxXxXxXxXxXxXxXxXxXxXxXxXxXjX<Xj.5 s.D.1XdXjXjXjXkXkX6XpXiXiXpXwX;X}.M.7.5 h.#XkXjXxXxXxXxXxXxXxXxXxXxXxXxXxXxXxXxXxXxX",
"xXxXxXxXxXxXxXxXxXxXxXxXxXxXxXxXjX2Xs.5 Z.pXjXjXjXjXhXkXkXgXgXE.^.aX%X<X<X<X,X1X;X~.l.5 s.@XjXjXxXxXxXxXxXxXxXxXxXxXxXxXxXxXxXxX",
"xXxXxXxXxXxXxXxXxXxXxXxXxXxXjXyXd.5 K.gXjXjXjXjXjXjXjXhXlX6X5X!.;.' _ tXwX<X,X;X-X#X-X@XM.8 f.1XjXiXxXxXxXxXxXxXxXxXxXxXxXxXxXxX",
"xXxXxXxXxXxXxXxXxXxXxXxXxXjXF.3 V.gXjXhXhXjXjXjXjXjXjXjXgXU.` &.N B pXpXtX<X<X,X;X-X#X@X@XoXh.3 Z.gXiXxXxXxXxXxXxXxXxXxXxXxXxXxX",
"xXxXxXxXxXxXxXxXxXxXxXxXdXd.6 <XjXhXgXhXhXhXjXjXjXjXjXjXjXjX).s p B pXiXtXwXwX<X:X;X#X#X@XoX@XF.6 s.wXiXxXxXxXxXxXxXxXxXxXxXxXxX",
"xXxXxXxXxXxXxXxXxXxXxXtX5 k.gXgXdXgXgXhXhXhXhXhXjXjXjXjXjXjXP._ <X` U.fXpXwXwX<X<X:X;X-X@X@X}.}.}.d.5 ;XiXxXxXxXxXxXxXxXxXxXxXxX",
"xXxXxXxXxXxXxXxXxXxX<X3 F.hXiXiXdXdXgXgXgXhXhXhXjXjXjXjXjXjX^.fXjXkXiXiXiXpXtXwX<X,X;X-X#X#X@X}.J.}.b.3 @XwXxXxXxXxXxXxXxXxXxXxX",
"xXxXxXxXxXxXxXxXxX<X3 J.gXuXdXiXiXdXdXgXgXhXhXhXjXhXaXwX<X,X7X<X,X1X;X;X:XwXtXyXwX<X1X;X-X#X@XoX}.K.}.M.3 #X<XxXxXxXxXxXxXxXxXxX",
"xXxXxXxXxXxXxXxXqX8 K.dXuXuXuXdXdXdXdXdXgXhXhXpX<X<XyXlXlXlX5X4X4X4X4X4X6X1X%X-X<XwX<X:X;X-X#X@X$X}.J.J.b.5 -X}.xXxXxXxXxXxXxXxX",
"xXxXxXxXxXxXxXiX6 L.dXyXuXuXuXuXiXdXdXdXgXpX;XwXgXlX4X/.W.W.2.2.2.W.W.W.Q./.(.zX2X&X,X<X:X;X-X#X@X}.}.J.J.l.6 ,XZ.xXxXxXxXxXxXxX",
"xXxXxXxXxXxXhXh.j.dXqXtXuXuXuXdXiXiXdXaX2X<XhX5X/.<.,.,.1.2.2.2.2.<.<.<.<.<.<.!./.(.$X&X<X:X-X#X@X@X}.J.J.J.d.h.,Xb.xXxXxXxXxXxX",
"xXxXxXxXxXxXJ.6 qX0XqXqXqXqXqXuXuXdXtX&XgXlX/.,.,.<.2.,.<.<.1.W.<.<.1.<.1.>.>.-.:.>.W.^.OX,X,X-X-X#X}.}.J.K.K.7.F.K.xXxXxXxXxXxX",
"xXxXxXxXxXyX5 #XqX0X0XqXqXqXuXuXuX>X-XhX4X2.,.2.2.<.<.<.<.2.W.;.>.>.1.>.>.:.:.-.-.-.-.-.R.A.:X=X-X#X$X}.}.J.J.C.s.#Xd.xXxXxXxXxX",
"xXxXxXxXxXk.v.uX0X0X0XqXtXqXuXuX>X2XjX/.,.,.<.<.W.!.2.<.W.W.;.( | 1.1.-.:.>.:.:.%.%.%.%.@. .Z.>X;X-X#X@X}.}.J.J.h.M.}.xXxXxXxXxX",
"xXxXxXxX2X7 >X0X0X7X7XqX0XtXuX>X&XjXQ.,.2.,.<.Q.y.8.R.!.| | ] ] ] ' | ;.R.S.0.' %.%.$.o.o.o.' V.<X;X-X#X@X}.}.J.F.f.oXf.xXxXxXxX",
"xXxXxXxXj.Z.qX7X7X7X0X0XqXqX0X$XhX/.,.2.<.,.W.N.u.|.y.r.r.x.P.L.P.x.e.u.u.|.p.2 X.o.o.o.X.X.{ ( F.<X-X-X@X$X}.J.J.b.M.F.xXxXxXxX",
"xXxXxX;X6 >X0X7X7X7X0X7X0XyX@XiX4X,.<.<.<.2.R.t.|..XeX.Xp..XeX|..XeX|.p.rXeXrXa.l o.X.X.{ I I Z / @X1X-X#X@X}.}.J.F.z.J.5 xXxXxX",
"xXxXxXB.j.qX0XzX:X7X0XqX0X;X:X5X<.<.<.<.<.2.v.|..X|..Xy.9.9.{.XX_._.{.|.rXrXXXp.< K X.P K { K K p g.wX;X-X#X%X}.}.}.b.L.l.xXxXxX",
"xXxX:X7.[.>X8X(.R.yX%X2XqXOX5XQ.,.<.1.<.1.1.r..XeX.X|. X X5.9. X5.4.t._.9X.XXXXX2 Y P L K K K G A - @X<X;X-X).R.@X}.B.b.F.> xXxX",
"xXxX[.7.=X2X6X/.-.| / 2X=X1X4X<.<.,.1.1.>.1.0.3XsXsX.X.X9Xt.9.XX5.y.t._.rX.XrXwX3.N I K K K G G K = 6 wX%X6X(.;.R./ L.b.F.4 xXxX",
"xXxXv.h.>XU.` &.A g [.qX+X5XQ.>.>.>.>.>.-.;.0.).3XeXeXeXjXy.9.{.9.].i.u.rXeXlX3X3.M I K G G G G J V * :X^.` &.^ p M.@XM.S.6 xXxX",
"xXxXs.C.*X=X~.N g M ~.7X#X4X>.>.>.>.:.-.-.;.q.T.3XeXfXrXi.5.u._.5.].u.5.kXkX).T.2 h J K G G F F F C & B.pX#XN p M L.@XF.B.d.xXxX",
"xXxX6 H.[.2XU.l J.x.x.=X%X/.:.>.:.-.-.-.-.%.q.T.lXkXkXa.5.u.y.sXt.u.4._.jXkX3XT.; Z G F F U F F F J = 3 sX^.g B._ _ #X}.b.l.3 xX",
"xXoX7 J.[.2XL.[.7X0X0X+X6XW.-.-.-.-.-.%.%.#.8 {.4XjXfX6. Xy.t._.t.a. XjXjXkX4X{.0 C G U F F U F F J p * pX~.~.wX3X#X@X}.M.M.5 xX",
"xXD.6 `.'.[.*X=X=X:X>X[.(.1.-.-.-.%.%.$.$.#./ r.).hXjXt. Xy.y. X5. XjXjXjXjX(.e.- F F F F F F F F J V o ,XtXwX,X,X;X-X#XB.M.8 xX",
"xXM.7.H.H.[.[.+X*X=X>X[./.-.%.%.$.$.$.o.o.o.S 5.3XjXhXy.y.r.0.sX5.].rXsXjXjX3X3.s J F F F F F F F J Y X }.iXwX<X,X;X-X-XZ.b.3 xX",
"xXl.7.F.G.H.[.OX+X2X=X$XE.$.$.$.$.o.o.o.X.X.E 9 {.4X-X Xt.4.y.sX6.n.sX XlX(.{.0 C F F F F F F G J J C X F.aXtXwX,X1X-X;XL.b.3 xX",
"xXz.6 A.A.G.J.[.OX&X*X~.W.$.$.o.o.X.X.X.~ P I N 3.).3X9XqX XqXhX].9.t.].lX).6.a J F F F F F G H H J U X A.dXtXwXwX,X,X,XA.b.8 xX",
"xXg.7 S.Z.D.D.[.[.+X+X~.;.$.o.X.X.X.X.P P L K J - t.jXjXjXjXjXhXjXhXsXjXjXu.# C F F F F F J H H H R D X F.gXpXpXwX<X1X<XA.k.3 xX",
"xXf.8 m.V.D.D.H.[.[.[.~.;.X.X.X.P P L L K K P o. .8 Y.Y.b b b b b b b Y.Y., ] X.J F F J H H H H H E A X }.gXpXwXwXwX<XwXF.l.4 xX",
"xXd.8 m.m.Z.A.D.[.[.[.K.%.{ { I L P L K X. . .} v c c y c c y c c c c m m x v v ] { K G H H R R T E Z o ,XgXiXpXpXwXwXwXF.h.1 xX",
"xXd.9 j.k.m.Z.S.D.H.[.L. .X.K K K K G $.Y.v f u q n Y.m b b b b b b c n n m e t k v v { E R R E E ! M @ iXkXiXpXpXtXwXwXA.g., xX",
"xXf.1 g.j.v.m.Z.A.H.[.S.` K K K K F K } e q q u u n b y n c c b n c c n b x t e e w k g D E E E W ! = < jXgXiXiXiXpXtXwXC.s.< xX",
"xXf., s.z.j.v.V.C.D.H.'._ K K K U { ;.x q q q w x f f d i i i i i i i i d f x k w w e f { ! W Q ! ! O g.jXgXgXgXiXpXpXwXV.7 : xX",
"xXxX, 5 g.z.j.v.V.C.D.[.g.Z G G ;.I.b t q f v Y.| a V V Y D D D D D D Y V ] P.Y.} k w m n ..{ Q ! Z   ,XjXgXgXgXiXiXpX;Xb.4 xXxX",
"xXxX1 4 f.g.z.v.m.V.S.H.V.l C G h u y t v R.4X).P.g F J F H F H H H T T W  .| ).(.R.v y y u g W *.= : jXjXkXgXgXgXiXgX@Xl.> xXxX",
"xXxX4 , 7.f.g.j.v.m.Z.D.'.9 s F F h y y ..E.I.v w j D G H H H H H L R R Q h w v P.E.} y t a O.@.S   K.jXjXjXkXkXlXfXlXG.s.* xXxX",
"xXxX, > 3 s.f.g.j.v.V.Z.H.m.= Y F { c t f g j d p V L H H H H R R R E E W A h p d g f m t N @.*.= : jXjXjXjXhXhXkXgXpXZ.3 + xXxX",
"xXxXxX, 1 7.s.d.g.j.v.V.C.[.3 j F ..f s V Y G H T R H H H L R E E E Q W W ! ! O.#.~ S h d h =.N   `.jXjXjXjXjXhXkXkX;Xh.< xXxXxX",
"xXxXxX, < 5 7.s.g.z.j.v.V.A.D.* a V V J J H H H H H L R R E E E E Q W W ! ! O.O.#.@.@.=.^ S ^   8.jXjXjXjXjXjXjXhXkXK.7 # xXxXxX",
"xXxXxXxX< 1 6 s.f.g.h.k.m.Z.G.v.O M T T H H H R R R R E E E W W W ! W O.O.O.O.O.+.O.+.+.*.#.O : gXhXjXjXjXjXjXjXjXtXb.< xXxXxXxX",
"xXxXxXxX< < 8 7 7.f.g.j.v.m.Z.H.h.X s T H H H R R E E E W Q W W W #.O.O.O.O.@.#.@.@.+.*.~ O # pXjXkXhXhXjXjXjXjXjX}.7 # xXxXxXxX",
"xXxXxXxXxX: 1 5 6 7.d.g.j.v.B.C.J.g.o j T E E E E E W W W W ! ! O.O.O.O.+.#.@.@.@.@.=.S O $ wXjXgXhXhXjXjXjXjXjXtXk.< xXxXxXxXxX",
"xXxXxXxXxX: < 3 7 8.s.d.g.l.v.V.A.J.k.@ & A W W W W W W W #.O.O.O.+.+.+.@.@.@.@.*.@.B   > pXjXlXgXhXhXhXhXjXjXkXK.3 + xXxXxXxXxX",
"xXxXxXxXxXxX: > 5 7 7.s.d.h.l.v.U.C.J.G.<   = L O.! O.! ! O.O.+.+.+.+.+.@.@.*.@.S & . f.hXhXdXdXgXgXhXhXhXjXjX;Xf.# xXxXxXxXxXxX",
"xXxXxXxXxXxX# : , 5 7 7.f.g.g.v.R.c.'.U.[.h.# X = S W @.*.*.*.*.*.*.*.=.*.~ N &   > [.hX6X^.dXgXgXgXgXhXkXjXtXM.: $ xXxXxXxXxXxX",
"xXxXxXxXxXxXxX# : 1 7 7.7.h.C.^.Q.;.` z D.[.[.z.: . O = p N S S S S N a &   o 9 H.aXdXaX4X;.lX^.^.gXgXhXhXiXF., $ xXxXxXxXxXxXxX",
"xXxXxXxXxXxXxXxX# : 4 7 6 d.) | &.Z g m.G.H.[.=X&XH.f.> # o o o   . @ # 3 B.>XdXaXqX).^.Q.;.N / uXgXdXhXiX}.4 $ xXxXxXxXxXxXxXxX",
"xXxXxXxXxXxXxXxXxX# : 4 6 7.8.) N p B N.A.D.H.`.oX&X>X8X>X=X[.[.}.*X,XyXuXuXuX0XqXuX7Xc.[ Z M ,XhXdXgXiX}.3 $ xXxXxXxXxXxXxXxXxX",
"xXxXxXxXxXxXxXxXxXxX# : 4 6 s./ g 7.l ) S.A.G.'.[.OX+X&X=X>X0X0XqXqX7X7X0X0X0XqX0XqXuXlXN l B ` gXdXyX}.3 $ xXxXxXxXxXxXxXxXxXxX",
"xXxXxXxXxXxXxXxXxXxXxX# : 1 7.8 s.z.j.j.m.Z.D.G.H.[.OX*X=X=X>X8X7X7X7X7X0X0X0X0XqXqXuX^.( uXwXL.uX0XK., @ xXxXxXxXxXxXxXxXxXxXxX",
"xXxXxXxXxXxXxXxXxXxXxXxX@ * , 7 f.d.g.j.v.m.Z.D.H.`.[.OX&X2X=X>X7X7X8X0X>X0X0X0X0XqXqX>XqXiXiXaX>XB.: % xXxXxXxXxXxXxXxXxXxXxXxX",
"xXxXxXxXxXxXxXxXxXxXxXxXxX# # > 3 s.d.g.l.v.V.S.D.H.[.[.+X&X=X=X>X7X0X8X0X7X7X0X0X0XtXyXuXuX0XoX6 # $ xXxXxXxXxXxXxXxXxXxXxXxXxX",
"xXxXxXxXxXxXxXxXxXxXxXxXxXxX$ # < 4 6 d.h.k.m.V.A.G.K.[.[.+X&X=X=X>X>X0X7X7X7X0X0X0XqXyX0X&Xl.< @ . xXxXxXxXxXxXxXxXxXxXxXxXxXxX",
"xXxXxXxXxXxXxXxXxXxXxXxXxXxXxXxX% # , 3 s.z.v.m.Z.A.G.H.[.[.+X=X=X>X>X8X0X>X0X0X0X0X7X*Xk.> @ % xXxXxXxXxXxXxXxXxXxXxXxXxXxXxXxX",
"xXxXxXxXxXxXxXxXxXxXxXxXxXxXxXxXxXxX% # < 8 s.j.m.C.G.H.[.[.OX&X=X>X>X8X0X0X>X>X&XG.s.< % . xXxXxXxXxXxXxXxXxXxXxXxXxXxXxXxXxXxX",
"xXxXxXxXxXxXxXxXxXxXxXxXxXxXxXxXxXxXxXxX% + * , 8 f.j.V.D.H.[.oX+X&X&X#X[.K.m.7., # o . xXxXxXxXxXxXxXxXxXxXxXxXxXxXxXxXxXxXxXxX",
"xXxXxXxXxXxXxXxXxXxXxXxXxXxXxXxXxXxXxXxXxXxX% o % + # : > 4 3 3 8 8 9 , : $ % . . o xXxXxXxXxXxXxXxXxXxXxXxXxXxXxXxXxXxXxXxXxXxX",
"xXxXxXxXxXxXxXxXxXxXxXxXxXxXxXxXxXxXxXxXxXxXxXxXxXxX$ $ $ + @ @ @ @ @ @ @ $ xXxXxXxXxXxXxXxXxXxXxXxXxXxXxXxXxXxXxXxXxXxXxXxXxXxX",
"xXxXxXxXxXxXxXxXxXxXxXxXxXxXxXxXxXxXxXxXxXxXxXxXxXxXxXxXxXxXxXxXxXxXxXxXxXxXxXxXxXxXxXxXxXxXxXxXxXxXxXxXxXxXxXxXxXxXxXxXxXxXxXxX"
};
