/* XPM */
static char *_f7f0cbc5bd24867aa5e3cf3765696e3[] = {
/* columns rows colors chars-per-pixel */
"32 32 202 2 ",
"   c #1D1A1B",
".  c #120F10",
"X  c #2F2C2D",
"o  c #3A3A3C",
"O  c #6E5F34",
"+  c #796529",
"@  c #7A6A35",
"#  c #403F41",
"$  c #4B4B4D",
"%  c #454547",
"&  c #565658",
"*  c #665942",
"=  c #71674B",
"-  c #77745C",
";  c #666668",
":  c #716C67",
">  c #6E6E70",
",  c #727274",
"<  c #7C7A7B",
"1  c #73747C",
"2  c #6C7D6F",
"3  c #B11C24",
"4  c #B22C37",
"5  c #CD3B3C",
"6  c #8F6D1E",
"7  c #83712D",
"8  c #866A31",
"9  c #B35F31",
"0  c #CD563D",
"q  c #C24C2B",
"w  c #E13940",
"e  c #847850",
"r  c #B57340",
"t  c #807E7E",
"y  c #CB4842",
"u  c #C85745",
"i  c #D35646",
"p  c #D64D4C",
"a  c #F75558",
"s  c #E6524E",
"d  c #CD6F4E",
"f  c #9C831E",
"g  c #B78A1A",
"h  c #9A8039",
"j  c #AD8724",
"k  c #B89B25",
"l  c #B38C35",
"z  c #D09519",
"x  c #DCA31B",
"c  c #EFAB1D",
"v  c #C99528",
"b  c #D2A73A",
"n  c #E5AD24",
"m  c #ECB123",
"M  c #F3B227",
"N  c #F9BC2E",
"B  c #F7B828",
"V  c #F5BE3C",
"C  c #F4BA33",
"Z  c #E8AE36",
"A  c #EB972B",
"S  c #FCC22C",
"D  c #F9C332",
"F  c #FECB34",
"G  c #F8C73A",
"H  c #FED13C",
"J  c #F6D63D",
"K  c #8A845F",
"L  c #B38F50",
"P  c #928B74",
"I  c #A89772",
"U  c #B8A36F",
"Y  c #D38856",
"T  c #E19B5A",
"R  c #CEA64A",
"E  c #EDBB40",
"W  c #C69E62",
"Q  c #C6AC73",
"!  c #F7C747",
"~  c #FFD542",
"^  c #FFDB45",
"/  c #FFDE49",
"(  c #EBC458",
")  c #FCD75D",
"_  c #F9CE54",
"`  c #FFE64B",
"'  c #FDDA65",
"]  c #EFD06F",
"[  c #FFE46E",
"{  c #FFEC76",
"}  c #FFEC79",
"|  c #FDE577",
" . c #7D7D81",
".. c #4B7DBE",
"X. c #5595C7",
"o. c #6797CA",
"O. c #799ECD",
"+. c #5EA1CA",
"@. c #7BA8D2",
"#. c #6EA0D1",
"$. c #78BAE2",
"%. c #86868B",
"&. c #8A8A8D",
"*. c #838285",
"=. c #8D8C91",
"-. c #959499",
";. c #9A9A9D",
":. c #959498",
">. c #8F9493",
",. c #BBB295",
"<. c #B1B096",
"1. c #9D9DA1",
"2. c #A29DA7",
"3. c #9FA0A2",
"4. c #95B6B3",
"5. c #8BB0A4",
"6. c #A3A3A6",
"7. c #A6A5A9",
"8. c #AAAAAC",
"9. c #A8A8AD",
"0. c #B8B8A8",
"q. c #ADADB3",
"w. c #A9A9B5",
"e. c #B1AFB5",
"r. c #AAB3B6",
"t. c #B2B3B5",
"y. c #B4B3B9",
"u. c #BABBBD",
"i. c #B8B7BB",
"p. c #87A597",
"a. c #DBA687",
"s. c #CBB98A",
"d. c #E4B896",
"f. c #C2BBB7",
"g. c #F3B3B2",
"h. c #DBC68A",
"j. c #DED895",
"k. c #EAD98D",
"l. c #FBE68A",
"z. c #FFF189",
"x. c #FFF292",
"c. c #CAC2BE",
"v. c #D0CCB4",
"b. c #F0CCB7",
"n. c #FDEFA7",
"m. c #FEF1AB",
"M. c #F6EAB3",
"N. c #F6EBBA",
"B. c #85ABD9",
"V. c #83ACC8",
"C. c #BCBCC2",
"Z. c #BAB9C6",
"A. c #A2BECA",
"S. c #C1BEC7",
"D. c #E1BDC2",
"F. c #95C1DE",
"G. c #B1C7C6",
"H. c #BDE0CB",
"J. c #94C7E8",
"K. c #AFD5EC",
"L. c #9AE0FA",
"P. c #BFE7F4",
"I. c #C2C3C5",
"U. c #C9C5CB",
"Y. c #CCCCCE",
"T. c #C6C6C9",
"R. c #D3CEC9",
"E. c #CCCBD2",
"W. c #CAC8D5",
"Q. c #D3CFD6",
"!. c #CFD0D2",
"~. c #D5D5D9",
"^. c #DADBDD",
"/. c #D7D6D8",
"(. c #D7D3C8",
"). c #E1DBDA",
"_. c #E5E2D6",
"`. c #F1EDD5",
"'. c #EEE8C8",
"]. c #DDDBE2",
"[. c #D6D7E0",
"{. c #C0D4EC",
"}. c #E2DDE4",
"|. c #E4DFE9",
" X c #DAE3EA",
".X c #DBF4FC",
"XX c #C4EDFC",
"oX c #E3E2E3",
"OX c #E5E3E9",
"+X c #EAE5EC",
"@X c #EBEBED",
"#X c #EAE9E4",
"$X c #F1EDE3",
"%X c #E5F7E7",
"&X c #EDEBF1",
"*X c #F0EDF1",
"=X c #F3F2F3",
"-X c #F9F7FA",
";X c #FDFDFD",
":X c #F5F5FA",
">X c #FFFFED",
",X c None",
/* pixels */
",X,X,X,X,X,X,X,X,X,X,X,X,X,X,X-X;X,X,X,X,X,X,X,X,X,X,X,X,X,X,X,X",
",X,X,X,X,X,X,X,X,X,X,X/.u.t.t.r.q.q.t.T.oX;X,X,X,X,X,X,X,X,X,X,X",
",X,X,X,X,X,X,X,X@Xu.t.!.#X=X-X$X_./.!.u.6.6.Y.:X,X,X,X,X,X,X,X,X",
",X,X,X,X,X,X,XI.8.^.;X;X;X;X#X] R (.oX^.~.I.6.3.^.,X,X,X,X,X,X,X",
",X,X,X,X,X,X8.T.-X-X-X;X;X;X;XQ U ^.@X^.~.!.Y.i.:.C.,X,X,X,X,X,X",
",X,X,X,X,X7./.:X=X=X-X;X;X:X&XoX%XoXoX^. X~.Y.T.I.;.i.,X,X,X,X,X",
",X,X,X,X8./.*X+X=X=X=X=X#X'.M.m.n.n.N._./.oX/.Y.I.u.;.t.,X,X,X,X",
",X,X,Xt.U.+X+X+X@XOX#XN.z.} } } { { { | l.v.~.~.Y.I.u.;.r.,X,X,X",
",X,X!.e.+X}.+X+X}.`.x.[ } { } ] ] { [ ' ) ) h.E.~.T.I.r.3.8.,X,X",
",X,X8./.}.}.|.].`.z.{ j.@.0.,.Q U 6.A.p.! ! ! W !.!.T.I.8.3.,X,X",
",X,Xy.|.}.|.]._.x.{ } r.L.J.#.K.J.J.XX$.L G V n I [.!.T.C.8.; ,X",
",X8.S.N.h.U.[.m.{ z.] A..XK.@.o...@.XXK.K N C N j y.^.j.,.8. .,X",
",X2.W.Q j c._.} | [ ] 5.%X.X@.o.#.+..XH.e B M M z P (.b L G.=.,X",
",X1.Q.,.f.R.M.[ ' ' ) p.>XF.X.B.X.F.;XH.e B M M m @ T.,.0.T.-.,X",
",X;.S.E.~.Q.l.) ) _ ! P %XK.o.O.O.-X;X4.j M M B B 6 T. X^.Y.1.,X",
"u.:.i.S.W.R.] _ ! ! G L 4. XB.{.B.K.%X2 c B M B S 6 C.@X^.~.1.9.",
"y.=.q.Z.S.S._ ! ! V D ! P D.b.g.g.g.2.l N N N B F 6 T.@XoX^.3.6.",
",Xt 2.e.S.S.( V C E T i s s a a a s p y d Z S D F + [.=XOXoX;.,X",
",X, -.2.e.y.R N V T 3 3 y u 0 i 0 0 u 4 4 q E H D = =X=X@XoX&.,X",
",X; =.;.9.i.I M Y w u d.L z n n n n R d.Q y s E k >.;X=X=XoX, ,X",
",X& < =.;.w.-.j A w d L j M N N D F Z r W i q J + oX;X-X-X!.$ ,X",
",X,X; &.-.1.e.e z v x M B D N G G G H H G b b f >.;X;X;X;X3.> ,X",
",X,X$ 1 &.-.7.w.O x F N S D G H H ~ ~ ^ ` ` k : -X;X;X;X*X& ,X,X",
",X,Xo ;  .&.-.9.w.* g F H H H ~ ~ ^ / ` ^ f : =X;X-X;X;X6.& ,X,X",
",X,X,X% >  .=.6.c.q.: + k G ^ / / / G k O =.$X-X=X-X;X/.% ,X,X,X",
",X,X,X,X$ , *.,.( I C.w.< = @ 8 @ @ = &.Q.$Xl.s.OX;X#X; ,X,X,X,X",
",X,X,X,X,X$ 1 P 7 I e.S.E.Q.W.Z.S.Q.OX*X+X(.l U -X+X, ,X,X,X,X,X",
",X,X,X,X,X,Xo : &.-.2.e.f.U.Q.[.|.}.}.}.OX).R.oX!.& ,X,X,X,X,X,X",
",X,X,X,X,X,X,X% ; =.1.9.y.S.U.Q.[.}.}.}.OX&XOX7.o ,X,X,X,X,X,X,X",
",X,X,X,X,X,X,X,X  % , -.q.C.U.Q.].}.|.}.!.;.$   ,X,X,X,X,X,X,X,X",
",X,X,X,X,X,X,X,X,X,X  X % ; < &.=.%., & X . ,X,X,X,X,X,X,X,X,X,X",
",X,X,X,X,X,X,X,X,X,X,X,X,X,Xt t t < ,X,X,X,X,X,X,X,X,X,X,X,X,X,X"
};
